<svg version="1.1" id="Layer_1" xmlns="http://www.w3.org/2000/svg" xmlns:xlink="http://www.w3.org/1999/xlink" x="0px" y="0px"
	 width="100%" viewBox="0 0 500 500" enable-background="new 0 0 500 500" xml:space="preserve">
<path fill="#000000" opacity="0.000000" stroke="none" 
	d="
M501.000000,27.000000 
	C501.000000,184.953598 501.000000,342.907196 501.000000,500.930420 
	C334.428711,500.930420 167.857376,500.930420 1.000000,500.930420 
	C1.000000,343.308533 1.000000,185.616913 1.232635,27.461033 
	C1.465270,26.996790 1.930383,26.984303 2.250494,27.144650 
	C7.913713,37.007298 13.279244,46.697334 18.595003,56.414597 
	C28.042982,73.685600 37.436790,90.986282 46.910084,108.243355 
	C48.975853,112.006485 51.280643,115.638397 53.824505,119.918152 
	C62.387367,108.955612 73.813354,107.918571 85.750389,107.964348 
	C114.249619,108.073639 142.750107,108.098549 171.248825,107.936348 
	C179.281860,107.890633 186.820755,109.756729 193.876694,113.122986 
	C198.819519,115.481117 203.003418,114.925301 207.860855,113.152588 
	C213.887497,110.953194 220.242798,108.252609 226.469421,108.218796 
	C291.800018,107.864014 357.133667,107.904816 422.465088,108.172173 
	C427.936493,108.194565 433.610657,110.115913 438.790894,112.165421 
	C442.385040,113.587387 445.292755,116.744278 448.792450,119.337440 
	C458.674713,101.408852 468.372040,83.731392 478.152405,66.099976 
	C485.402252,53.030418 492.759979,40.020679 500.302185,26.990543 
	C500.534729,26.996786 501.000000,27.000000 501.000000,27.000000 
M438.726044,228.085663 
	C438.735168,194.934921 438.651794,161.783615 438.860718,128.634125 
	C438.889557,124.065353 437.407440,123.145279 433.164520,123.152275 
	C361.032410,123.271317 288.899933,123.274765 216.767838,123.145905 
	C212.416550,123.138138 211.110077,124.242363 211.136322,128.703217 
	C211.325485,160.853470 211.232727,193.005356 211.250641,225.156723 
	C211.251633,226.935776 211.441727,228.714722 211.573013,231.002686 
	C224.149445,231.002686 236.274338,230.999924 248.399231,231.003754 
	C255.243347,231.005920 255.253357,231.010818 255.253830,237.696960 
	C255.256958,282.508972 255.254730,327.320953 255.256317,372.132965 
	C255.256561,378.751068 255.261688,378.760590 261.600861,378.761047 
	C303.580872,378.764008 345.561401,378.666931 387.540283,378.885803 
	C392.676605,378.912537 393.881104,377.481293 393.859497,372.479767 
	C393.663452,327.168854 393.800323,281.856537 393.656036,236.545258 
	C393.642181,232.194229 394.799683,230.783432 399.256653,230.901337 
	C410.743164,231.205215 422.244232,231.082245 433.736267,230.912338 
	C435.383270,230.887970 437.012482,229.659164 438.726044,228.085663 
M63.227718,240.499985 
	C63.227779,284.812469 63.275066,329.125061 63.148308,373.437225 
	C63.136765,377.472504 64.118332,378.871765 68.389603,378.854706 
	C107.370781,378.699219 146.353195,378.686462 185.334152,378.867432 
	C189.858032,378.888428 190.849442,377.488007 190.843124,373.198212 
	C190.723221,291.736420 190.723709,210.274353 190.842026,128.812561 
	C190.848236,124.540329 189.885681,123.110313 185.344940,123.131706 
	C146.530579,123.314575 107.714592,123.320152 68.900330,123.127808 
	C64.177650,123.104416 63.116959,124.594704 63.136490,129.051926 
	C63.297802,165.867371 63.228062,202.683823 63.227718,240.499985 
M202.104965,377.547852 
	C198.659424,381.877258 200.802887,385.777954 203.002823,389.704102 
	C215.884735,412.694305 228.759506,435.688446 241.619370,458.690948 
	C244.545670,463.925262 247.403656,469.197784 250.985138,475.711304 
	C266.459381,447.812683 281.224518,421.192505 296.306885,394.000336 
	C287.323395,394.000336 279.317535,394.295746 271.343719,393.916992 
	C263.418121,393.540558 255.818542,391.827942 249.617844,386.166351 
	C242.819031,379.958710 240.146759,371.936432 240.088837,363.211914 
	C239.867615,329.890106 240.344284,296.560486 239.812500,263.245697 
	C239.625732,251.544464 237.167343,248.097702 225.820969,246.113510 
	C223.550293,245.716446 221.108459,246.269699 218.849457,245.839355 
	C209.407242,244.040558 206.615723,246.095322 206.015076,255.669525 
	C205.942184,256.831360 206.000763,258.001526 206.000748,259.167847 
	C206.000488,290.658325 206.220627,322.151459 205.844131,353.637451 
	C205.751236,361.405060 203.717667,369.149445 202.104965,377.547852 
z"/>
<path fill="#020202" opacity="0.000000" stroke="none" 
	d="
M501.000000,26.531334 
	C501.000000,27.000000 500.534729,26.996786 500.132141,26.577248 
	C498.409760,26.054873 497.089966,25.862057 495.770203,25.861948 
	C332.625397,25.848459 169.480560,25.846201 6.335762,25.896135 
	C4.867192,25.896585 3.398838,26.605928 1.930383,26.984303 
	C1.930383,26.984303 1.465270,26.996790 1.232635,26.998394 
	C1.000000,18.340206 1.000000,9.680414 1.000000,1.041217 
	C167.666672,1.041217 334.333344,1.041217 501.000000,1.041217 
	C501.000000,9.409178 501.000000,17.735924 501.000000,26.531334 
z"/>
<path fill="#5F2B60" opacity="1.000000" stroke="none" 
	d="
M438.687988,228.536713 
	C437.012482,229.659164 435.383270,230.887970 433.736267,230.912338 
	C422.244232,231.082245 410.743164,231.205215 399.256653,230.901337 
	C394.799683,230.783432 393.642181,232.194229 393.656036,236.545258 
	C393.800323,281.856537 393.663452,327.168854 393.859497,372.479767 
	C393.881104,377.481293 392.676605,378.912537 387.540283,378.885803 
	C345.561401,378.666931 303.580872,378.764008 261.600861,378.761047 
	C255.261688,378.760590 255.256561,378.751068 255.256317,372.132965 
	C255.254730,327.320953 255.256958,282.508972 255.253830,237.696960 
	C255.253357,231.010818 255.243347,231.005920 248.399231,231.003754 
	C236.274338,230.999924 224.149445,231.002686 211.573013,231.002686 
	C211.441727,228.714722 211.251633,226.935776 211.250641,225.156723 
	C211.232727,193.005356 211.325485,160.853470 211.136322,128.703217 
	C211.110077,124.242363 212.416550,123.138138 216.767838,123.145905 
	C288.899933,123.274765 361.032410,123.271317 433.164520,123.152275 
	C437.407440,123.145279 438.889557,124.065353 438.860718,128.634125 
	C438.651794,161.783615 438.735168,194.934921 438.687988,228.536713 
z"/>
<path fill="#FFC90E" opacity="1.000000" stroke="none" 
	d="
M2.250494,27.144650 
	C3.398838,26.605928 4.867192,25.896585 6.335762,25.896135 
	C169.480560,25.846201 332.625397,25.848459 495.770203,25.861948 
	C497.089966,25.862057 498.409760,26.054873 499.899597,26.571005 
	C492.759979,40.020679 485.402252,53.030418 478.152405,66.099976 
	C468.372040,83.731392 458.674713,101.408852 448.792450,119.337440 
	C445.292755,116.744278 442.385040,113.587387 438.790894,112.165421 
	C433.610657,110.115913 427.936493,108.194565 422.465088,108.172173 
	C357.133667,107.904816 291.800018,107.864014 226.469421,108.218796 
	C220.242798,108.252609 213.887497,110.953194 207.860855,113.152588 
	C203.003418,114.925301 198.819519,115.481117 193.876694,113.122986 
	C186.820755,109.756729 179.281860,107.890633 171.248825,107.936348 
	C142.750107,108.098549 114.249619,108.073639 85.750389,107.964348 
	C73.813354,107.918571 62.387367,108.955612 53.824505,119.918152 
	C51.280643,115.638397 48.975853,112.006485 46.910084,108.243355 
	C37.436790,90.986282 28.042982,73.685600 18.595003,56.414597 
	C13.279244,46.697334 7.913713,37.007298 2.250494,27.144650 
z"/>
<path fill="#5F2B60" opacity="1.000000" stroke="none" 
	d="
M63.228004,239.999969 
	C63.228062,202.683823 63.297802,165.867371 63.136490,129.051926 
	C63.116959,124.594704 64.177650,123.104416 68.900330,123.127808 
	C107.714592,123.320152 146.530579,123.314575 185.344940,123.131706 
	C189.885681,123.110313 190.848236,124.540329 190.842026,128.812561 
	C190.723709,210.274353 190.723221,291.736420 190.843124,373.198212 
	C190.849442,377.488007 189.858032,378.888428 185.334152,378.867432 
	C146.353195,378.686462 107.370781,378.699219 68.389603,378.854706 
	C64.118332,378.871765 63.136765,377.472504 63.148308,373.437225 
	C63.275066,329.125061 63.227779,284.812469 63.228004,239.999969 
z"/>
<path fill="#3F48CC" opacity="1.000000" stroke="none" 
	d="
M202.340607,377.226196 
	C203.717667,369.149445 205.751236,361.405060 205.844131,353.637451 
	C206.220627,322.151459 206.000488,290.658325 206.000748,259.167847 
	C206.000763,258.001526 205.942184,256.831360 206.015076,255.669525 
	C206.615723,246.095322 209.407242,244.040558 218.849457,245.839355 
	C221.108459,246.269699 223.550293,245.716446 225.820969,246.113510 
	C237.167343,248.097702 239.625732,251.544464 239.812500,263.245697 
	C240.344284,296.560486 239.867615,329.890106 240.088837,363.211914 
	C240.146759,371.936432 242.819031,379.958710 249.617844,386.166351 
	C255.818542,391.827942 263.418121,393.540558 271.343719,393.916992 
	C279.317535,394.295746 287.323395,394.000336 296.306885,394.000336 
	C281.224518,421.192505 266.459381,447.812683 250.985138,475.711304 
	C247.403656,469.197784 244.545670,463.925262 241.619370,458.690948 
	C228.759506,435.688446 215.884735,412.694305 203.002823,389.704102 
	C200.802887,385.777954 198.659424,381.877258 202.340607,377.226196 
z"/>
</svg>